<svg xmlns="http://www.w3.org/2000/svg" fill="none" viewBox="0 0 306 306" class="" ><path fill="currentColor" fill-rule="evenodd" d="M274.399 177.261a14.268 14.268 0 0 1-.035 20.492l-43.099 42.02c-5.794 5.649-15.171 5.634-20.945-.035a14.27 14.27 0 0 1 .036-20.492l43.099-42.02c5.793-5.648 15.171-5.633 20.944.035Z" clip-rule="evenodd"/><path fill="currentColor" fill-opacity=".992" fill-rule="evenodd" d="M194.043 255.205a14.256 14.256 0 0 1 0 20.303l-.29.287c-5.663 5.607-14.844 5.607-20.506 0a14.255 14.255 0 0 1 0-20.303l.29-.287c5.663-5.607 14.843-5.607 20.506 0Z" clip-rule="evenodd"/><path fill="currentColor" fill-rule="evenodd" d="M235.26 142.126a14.222 14.222 0 0 1 .014 20.374L126.251 269.687c-5.726 5.629-15.017 5.636-20.751.012a14.222 14.222 0 0 1-.014-20.374L214.51 142.139c5.725-5.63 15.016-5.636 20.75-.013Z" clip-rule="evenodd"/><path fill="currentColor" fill-rule="evenodd" d="M235.26 142.126a14.222 14.222 0 0 1 .014 20.374L126.251 269.687c-5.726 5.629-15.017 5.636-20.751.012a14.222 14.222 0 0 1-.014-20.374L214.51 142.139c5.725-5.63 15.016-5.636 20.75-.013Z" clip-rule="evenodd"/><path fill="currentColor" fill-opacity=".992" fill-rule="evenodd" d="M274.754 102.932a14.256 14.256 0 0 1 0 20.303l-.29.286c-5.663 5.607-14.844 5.607-20.506 0a14.255 14.255 0 0 1 0-20.303l.29-.286c5.663-5.607 14.843-5.607 20.506 0Z" clip-rule="evenodd"/><path fill="currentColor" fill-rule="evenodd" d="M122.738 182.202a14.063 14.063 0 0 1-.037 20.203l-40.47 39.429c-5.716 5.568-14.967 5.553-20.662-.036a14.063 14.063 0 0 1 .037-20.203l40.47-39.429c5.717-5.568 14.967-5.553 20.662.036ZM246.931 60.217a14.208 14.208 0 0 1 0 20.359l-84.791 83.207c-5.729 5.623-15.017 5.623-20.746 0a14.205 14.205 0 0 1 0-20.358l84.791-83.209c5.729-5.622 15.017-5.622 20.746 0Z" clip-rule="evenodd"/><path fill="currentColor" fill-opacity=".992" fill-rule="evenodd" d="M53.063 177.205a14.256 14.256 0 0 1 0 20.303l-.29.287c-5.663 5.607-14.844 5.607-20.507 0a14.256 14.256 0 0 1 0-20.303l.29-.287c5.663-5.607 14.844-5.607 20.507 0Z" clip-rule="evenodd"/><path fill="currentColor" fill-rule="evenodd" d="M201.475 31.213a14.222 14.222 0 0 1 .014 20.374L92.466 158.774c-5.726 5.629-15.017 5.636-20.751.012a14.222 14.222 0 0 1-.014-20.374L180.724 31.226c5.726-5.63 15.017-5.636 20.751-.013Z" clip-rule="evenodd"/><path fill="currentColor" fill-rule="evenodd" d="M201.475 31.213a14.222 14.222 0 0 1 .014 20.374L92.466 158.774c-5.726 5.629-15.017 5.636-20.751.012a14.222 14.222 0 0 1-.014-20.374L180.724 31.226c5.726-5.63 15.017-5.636 20.751-.013Z" clip-rule="evenodd"/><path fill="currentColor" fill-rule="evenodd" d="M201.475 31.213a14.222 14.222 0 0 1 .014 20.374L92.466 158.774c-5.726 5.629-15.017 5.636-20.751.012a14.222 14.222 0 0 1-.014-20.374L180.724 31.226c5.726-5.63 15.017-5.636 20.751-.013Z" clip-rule="evenodd"/><path fill="currentColor" fill-rule="evenodd" d="M201.475 31.213a14.222 14.222 0 0 1 .014 20.374L92.466 158.774c-5.726 5.629-15.017 5.636-20.751.012a14.222 14.222 0 0 1-.014-20.374L180.724 31.226c5.726-5.63 15.017-5.636 20.751-.013ZM94.4 65.261a14.268 14.268 0 0 1-.036 20.492l-43.099 42.02c-5.794 5.649-15.171 5.634-20.945-.035a14.27 14.27 0 0 1 .036-20.492l43.099-42.02c5.793-5.648 15.17-5.633 20.945.035Z" clip-rule="evenodd"/><path fill="currentColor" fill-opacity=".992" fill-rule="evenodd" d="M130.832 31.205a14.255 14.255 0 0 1 0 20.303l-.29.287c-5.663 5.607-14.844 5.607-20.506 0a14.255 14.255 0 0 1 0-20.303l.29-.287c5.663-5.607 14.844-5.607 20.506 0Z" clip-rule="evenodd"/></svg>