<svg xmlns="http://www.w3.org/2000/svg" fill="none" viewBox="0 0 306 306" class="" ><path fill="currentColor" fill-rule="evenodd" d="M224.736 245.834a13.035 13.035 0 0 1 0 18.509l-.264.261c-5.141 5.112-13.476 5.112-18.616 0a13.034 13.034 0 0 1 0-18.509l.263-.261c5.141-5.112 13.476-5.112 18.617 0ZM247.736 222.834a13.035 13.035 0 0 1 0 18.509l-.264.261c-5.141 5.112-13.476 5.112-18.616 0a13.034 13.034 0 0 1 0-18.509l.263-.261c5.141-5.112 13.476-5.112 18.617 0ZM245.113 151.849a13.034 13.034 0 0 1-.031 18.509l-30.006 29.83-30.006 29.83c-5.15 5.103-13.485 5.089-18.617-.031a13.035 13.035 0 0 1 .032-18.51l30.015-29.159 29.997-30.5c5.149-5.103 13.485-5.089 18.616.031ZM161.736 233.151a13.035 13.035 0 0 1 0 18.509l-.264.262c-5.141 5.111-13.476 5.111-18.616 0a13.035 13.035 0 0 1 0-18.51l.263-.261c5.141-5.111 13.476-5.111 18.617 0ZM236.736 87.834a13.035 13.035 0 0 1 0 18.509l-.264.261c-5.141 5.112-13.476 5.112-18.616 0a13.034 13.034 0 0 1 0-18.509l.263-.261c5.141-5.112 13.476-5.112 18.617 0ZM197.645 124a13.034 13.034 0 0 1-.032 18.509C192.463 147.611 184.5 156 184.5 156s-11.5 11.5-17.044 16.314c-5.543 4.814-13.484 5.088-18.616-.032a13.034 13.034 0 0 1 .032-18.509c5.149-5.103 2.934-2.644 17.128-16.773 14.207-14.141 7.879-7.929 13.028-13.032 5.15-5.102 13.485-5.088 18.617.032ZM144.736 176.834a13.035 13.035 0 0 1 0 18.509l-.264.261c-5.141 5.112-13.476 5.112-18.616 0a13.034 13.034 0 0 1 0-18.509l.263-.261c5.141-5.112 13.476-5.112 18.617 0ZM120.736 198.834a13.035 13.035 0 0 1 0 18.509l-.264.261c-5.141 5.112-13.476 5.112-18.616 0a13.034 13.034 0 0 1 0-18.509l.263-.261c5.141-5.112 13.476-5.112 18.617 0ZM98.736 221.834a13.034 13.034 0 0 1 0 18.509l-.264.261c-5.14 5.112-13.476 5.112-18.616 0a13.034 13.034 0 0 1 0-18.509l.263-.261c5.14-5.112 13.476-5.112 18.617 0ZM192.795 55.85a13.034 13.034 0 0 1-.031 18.508C187.614 79.46 174.5 92.5 174.5 92.5s-14.894 14.711-20.044 19.814c-5.149 5.102-13.484 5.088-18.616-.032a13.035 13.035 0 0 1 .032-18.51C141.021 88.67 154.456 75 154.456 75s14.402-14.865 19.723-19.182c5.321-4.318 13.485-5.089 18.616.031ZM131.736 115.834a13.035 13.035 0 0 1 0 18.509l-.264.261c-5.141 5.112-13.476 5.112-18.616 0a13.034 13.034 0 0 1 0-18.509l.263-.261c5.141-5.112 13.476-5.112 18.617 0ZM108.736 137.834a13.035 13.035 0 0 1 0 18.509l-.264.261c-5.141 5.112-13.476 5.112-18.616 0a13.034 13.034 0 0 1 0-18.509l.263-.261c5.14-5.112 13.476-5.112 18.617 0ZM69.736 174.834a13.034 13.034 0 0 1 0 18.509l-.264.261c-5.14 5.112-13.476 5.112-18.616 0a13.034 13.034 0 0 1 0-18.509l.263-.261c5.14-5.112 13.476-5.112 18.617 0ZM99.045 73.299a13.034 13.034 0 0 1-.031 18.509C93.864 96.91 80.429 110 80.429 110s-14.573 14.661-19.723 19.763c-5.15 5.103-13.484 5.089-18.616-.032a13.034 13.034 0 0 1 .032-18.509c5.15-5.103 18.584-18.722 18.584-18.722S75.28 78.37 80.43 73.267c5.15-5.102 13.485-5.088 18.616.032ZM112.164 46c7.27 0 13.164 5.86 13.164 13.088v1.309c0 7.228-5.894 13.088-13.164 13.088S99 67.625 99 60.397v-1.309C99 51.86 104.894 46 112.164 46Z" clip-rule="evenodd"/></svg>